<svg xmlns="http://www.w3.org/2000/svg" xmlns:xlink="http://www.w3.org/1999/xlink" version="1.1" x="0px" y="0px" viewBox="0 0 100 125" enable-background="new 0 0 100 100" xml:space="preserve"><path d="M93.696,60.691l-5.678,0.907c0-0.073,0.001-0.146,0.001-0.219c0-5.078-1.907-9.761-5.105-13.55  c4.696-10.373,10.702-26.839,6.043-35.139c-1.253-2.233-3.875-4.949-9.246-5.207c-0.267-0.013-0.528-0.019-0.785-0.019  c-4.01,0-7.223,1.587-9.293,4.591c-3.956,5.742-3.162,16.056-1.235,25.336c-0.743-0.622-1.519-1.213-2.32-1.778  c-2.116-12.428-7.15-27.486-19.132-27.486c-1.865,0-3.836,0.38-5.859,1.129c-5.873,2.177-7.503,5.78-7.837,8.42  c-0.444,3.515,1.218,7.512,3.96,11.538c-16.673,2.69-29.349,15.54-29.349,30.95c0,21.77,11.053,31.478,35.837,31.478  c13.059,0,22.301-2.699,28.127-8.434c10.394-2.294,14.23-8.456,15.552-14.802l4.22-0.294c0.551-0.039,0.966-0.516,0.928-1.067  s-0.511-0.959-1.067-0.928L87.72,66.38c0.121-0.924,0.2-1.844,0.245-2.749l6.046-0.965c0.545-0.087,0.917-0.6,0.83-1.145  C94.753,60.975,94.234,60.604,93.696,60.691z M73.752,14.893c1.141-1.656,2.786-2.427,5.175-2.427c0.178,0,0.359,0.004,0.544,0.013  c3.346,0.161,4.528,1.595,5.125,2.659c2.137,3.805,1.056,11.913-3.044,22.829c-0.815,2.171-1.679,4.258-2.52,6.184  c-1.39-1.057-2.903-1.988-4.526-2.768c-0.291-1.126-0.576-2.274-0.842-3.458C71.158,26.791,71.189,18.611,73.752,14.893z   M38.21,18.305c0.087-0.688,0.352-2.779,4.614-4.359c1.465-0.543,2.852-0.818,4.122-0.818c7.205,0,11.266,9.278,13.439,19.195  c-4.986-2.318-10.663-3.634-16.687-3.634c-0.236,0-0.469,0.012-0.704,0.016C39.82,24.733,37.863,21.048,38.21,18.305z   M43.698,86.644c-27.102,0-30.837-12.726-30.837-26.478c0-14.6,13.833-26.477,30.837-26.477s30.837,11.877,30.837,26.477  C74.536,73.918,70.8,86.644,43.698,86.644z M76.646,76.177c1.944-4.354,2.89-9.667,2.89-16.011c0-3.866-0.802-7.569-2.26-10.994  c3.551,3.182,5.744,7.474,5.744,12.208C83.019,67.93,81.675,73.132,76.646,76.177z"/><path d="M38.854,85.045c-6.796,0-12.325-4.703-12.325-10.484s5.529-10.484,12.325-10.484s12.325,4.703,12.325,10.484  S45.65,85.045,38.854,85.045z M38.854,69.078c-4.039,0-7.325,2.46-7.325,5.484s3.286,5.484,7.325,5.484s7.325-2.46,7.325-5.484  S42.893,69.078,38.854,69.078z"/><path fill="#ffffff" stroke="#ffffff" stroke-width="5" stroke-miterlimit="10" d="M40.613,66.708"/> </svg>