<svg xmlns:dc="http://purl.org/dc/elements/1.1/" xmlns:cc="http://creativecommons.org/ns#" xmlns:rdf="http://www.w3.org/1999/02/22-rdf-syntax-ns#" xmlns:svg="http://www.w3.org/2000/svg" xmlns="http://www.w3.org/2000/svg" xmlns:sodipodi="http://sodipodi.sourceforge.net/DTD/sodipodi-0.dtd" xmlns:inkscape="http://www.inkscape.org/namespaces/inkscape" viewBox="0 0 24.000001 30.00000125" version="1.1" x="0px" y="0px"><g transform="translate(0,-1028.3622)"><path style="color:#FFFFFF;font-style:normal;font-variant:normal;font-weight:normal;font-stretch:normal;font-size:medium;line-height:normal;font-family:sans-serif;text-indent:0;text-align:start;text-decoration:none;text-decoration-line:none;text-decoration-style:solid;text-decoration-color:#FFFFFF;letter-spacing:normal;word-spacing:normal;text-transform:none;direction:ltr;block-progression:tb;writing-mode:lr-tb;baseline-shift:baseline;text-anchor:start;white-space:normal;clip-rule:nonzero;display:inline;overflow:visible;visibility:visible;opacity:1;isolation:auto;mix-blend-mode:normal;color-interpolation:sRGB;color-interpolation-filters:linearRGB;solid-color:#FFFFFF;solid-opacity:1;fill:#FFFFFF;fill-opacity:1;fill-rule:evenodd;stroke:none;stroke-width:0.99998552;stroke-linecap:butt;stroke-linejoin:round;stroke-miterlimit:4;stroke-dasharray:none;stroke-dashoffset:0;stroke-opacity:1;color-rendering:auto;image-rendering:auto;shape-rendering:auto;text-rendering:auto;enable-background:accumulate" d="M 21.488281 5.0019531 A 0.50004273 0.50004273 0 0 0 21.351562 5.0234375 L 2.3515625 10.962891 A 0.50004273 0.50004273 0 0 0 2.328125 11.910156 L 7.0332031 13.621094 L 8.0253906 18.599609 A 0.50004273 0.50004273 0 0 0 8.9003906 18.818359 L 12.210938 15.503906 L 15.392578 16.660156 A 0.50004273 0.50004273 0 0 0 16 16.433594 L 21.9375 5.7441406 A 0.50004273 0.50004273 0 0 0 21.488281 5.0019531 z M 19.941406 7.2773438 L 15.332031 15.574219 L 10.912109 13.966797 L 19.941406 7.2773438 z M 16.923828 7.4550781 L 7.4238281 12.699219 L 4.0585938 11.474609 L 16.923828 7.4550781 z M 15.181641 9.5605469 L 9.5957031 13.697266 L 9.6074219 13.712891 A 0.50004273 0.50004273 0 0 0 9.4121094 13.976562 L 8.625 16.486328 L 8.03125 13.505859 L 15.181641 9.5605469 z M 10.208984 14.775391 L 11.175781 15.126953 L 9.6054688 16.699219 L 10.208984 14.775391 z " transform="translate(0,1028.3622)"/></g><text x="0" y="39.000001" fill="#FFFFFF" font-size="5px" font-weight="bold" font-family="'Helvetica Neue', Helvetica, Arial-Unicode, Arial, Sans-serif">Created by Juan Carlos Altamirano</text><text x="0" y="44.000001" fill="#FFFFFF" font-size="5px" font-weight="bold" font-family="'Helvetica Neue', Helvetica, Arial-Unicode, Arial, Sans-serif">from the Noun Project</text></svg>