<svg xmlns="http://www.w3.org/2000/svg" xmlns:xlink="http://www.w3.org/1999/xlink" version="1.1" x="0px" y="0px" viewBox="0 0 144.083 180" enable-background="new 0 0 144.083 144" xml:space="preserve"><path d="M118.847,22.634c-2.452-3.715-6.205-6.252-10.566-7.145c-1.105-0.227-2.234-0.341-3.354-0.341  c-7.875,0-14.736,5.605-16.327,13.394l-3.518,19.35c-8.454-2.047-17.629-2.048-26.083,0l-3.53-19.414  c-1.58-7.724-8.441-13.329-16.314-13.329c-1.121,0-2.249,0.114-3.354,0.341c-9.003,1.842-14.829,10.665-12.987,19.668  c0.03,0.149,0.072,0.296,0.125,0.438l10.281,27.825c-5.997,7.867-9.178,22.768-9.178,31.181c0,21.126,18.393,34.25,48,34.25  s48-13.124,48-34.25c0-8.412-3.181-23.313-9.177-31.181l10.28-27.825c0.053-0.143,0.094-0.289,0.125-0.438  C122.16,30.797,121.3,26.349,118.847,22.634z M115.429,33.744l-10.797,29.225c-0.391,1.059-0.155,2.246,0.61,3.075  c5.034,5.452,8.796,19.574,8.796,28.558c0,20.829-21.696,28.25-42,28.25c-20.304,0-42-7.421-42-28.25  c0-8.983,3.762-23.105,8.797-28.558c0.765-0.829,1.001-2.017,0.61-3.075L28.648,33.744c-1.046-5.688,2.661-11.212,8.353-12.377  c0.711-0.145,1.435-0.219,2.152-0.219c5.036,0,9.425,3.588,10.424,8.467l4.104,22.574c0.154,0.845,0.662,1.583,1.396,2.028  c0.735,0.445,1.626,0.555,2.444,0.301c4.645-1.438,9.529-2.168,14.519-2.168c4.99,0,9.875,0.729,14.52,2.168  c0.821,0.253,1.71,0.145,2.443-0.301c0.734-0.445,1.242-1.184,1.396-2.028l4.092-22.51c1.011-4.943,5.399-8.531,10.437-8.531  c0.717,0,1.441,0.074,2.151,0.219c2.791,0.571,5.193,2.195,6.763,4.572C115.371,28.258,115.932,31.021,115.429,33.744z"/><circle cx="45.04" cy="90.977" r="5.625"/><circle cx="99.039" cy="90.977" r="5.625"/><path d="M84.761,100.475c-1.657,0-3,1.343-3,3c0,1.861-1.514,3.375-3.375,3.375c-1.531,0-2.813-1.031-3.224-2.432  c1.163-0.412,2.001-1.511,2.001-2.816c0-1.657-1.343-3-3-3h-4.25c-1.657,0-3,1.343-3,3c0,1.306,0.839,2.405,2.003,2.817  c-0.412,1.399-1.693,2.431-3.224,2.431c-1.861,0-3.375-1.514-3.375-3.375c0-1.657-1.343-3-3-3s-3,1.343-3,3  c0,5.169,4.206,9.375,9.375,9.375c2.449,0,4.675-0.952,6.346-2.495c1.672,1.543,3.897,2.495,6.347,2.495  c5.169,0,9.375-4.206,9.375-9.375C87.761,101.817,86.418,100.475,84.761,100.475z"/></svg>